<?xml version="1.0" encoding="UTF-8"?>
<svg version="1.1" xmlns="http://www.w3.org/2000/svg" width="500" height="500">
<path d="M0 0 C6.50111876 8.35858127 4.47833013 20.52123585 3.28125 30.359375 C-0.93771465 61.87383036 -10.43227659 89.93683752 -32 114 C-32.44424316 114.50837402 -32.88848633 115.01674805 -33.34619141 115.54052734 C-48.74893465 133.15196584 -66.7115324 146.30886163 -88 156 C-89.18980469 156.54527344 -90.37960937 157.09054687 -91.60546875 157.65234375 C-133.88047265 175.77020256 -182.36475447 171.63445803 -224.375 155.125 C-253.71705708 143.17822428 -286.07341323 122.65942925 -299.4609375 92.734375 C-303.7966701 80.24992509 -303.47205751 67.06507559 -298 55 C-289.17735133 39.43907586 -276.48657934 29.4140673 -259.55078125 23.87109375 C-225.11391052 14.92701315 -190.94282221 25.92596715 -161 43 C-149.71832744 49.7492359 -139.50623867 58.21018184 -129.24804688 66.3984375 C-116.61887341 76.47673702 -102.71300772 84.7627872 -86 83 C-77.42692032 81.14785989 -70.77441201 77.47206139 -64 72 C-63.21238281 71.37609375 -62.42476562 70.7521875 -61.61328125 70.109375 C-50.03432202 60.33904548 -41.1164275 47.67621823 -33 35 C-8.55771064 -2.37714184 -8.55771064 -2.37714184 0 0 Z " fill="#7CD857" transform="translate(457,283)"/>
<path d="M0 0 C2.43393941 2.16801583 4.82573344 4.37160022 7.19921875 6.60546875 C7.78832031 7.14171875 8.37742187 7.67796875 8.984375 8.23046875 C18.7801478 17.49361088 26.55719377 28.96142495 33.19921875 40.60546875 C33.69566895 41.46495117 33.69566895 41.46495117 34.20214844 42.34179688 C56.19673046 80.69024515 63.07950658 128.35392542 54.19921875 171.60546875 C54.06531738 172.28802734 53.93141602 172.97058594 53.79345703 173.67382812 C50.41053071 190.28912202 42.61083918 206.60105721 28.38671875 216.54296875 C15.01851244 223.83955945 -0.58643859 224.84029959 -15.09765625 220.578125 C-36.32790487 212.93891704 -50.39273158 195.92175815 -59.95703125 176.234375 C-74.94246348 143.87357759 -73.64412742 108.48275846 -68.57958984 74.04467773 C-66.41055114 59.177464 -64.01953915 42.7545248 -72.86328125 29.54296875 C-73.36988281 28.87136719 -73.87648438 28.19976562 -74.3984375 27.5078125 C-75.80078125 25.60546875 -75.80078125 25.60546875 -76.734375 23.484375 C-78.09153509 21.09318817 -79.30524985 20.68277465 -81.80078125 19.60546875 C-83.24002396 18.67064634 -84.67736207 17.73288822 -86.11328125 16.79296875 C-106.0491628 4.8605433 -131.17874351 4.90685273 -153.67285156 3.37597656 C-156.9558317 3.14946527 -160.2376113 2.90928824 -163.51953125 2.66796875 C-164.50514038 2.60536865 -165.49074951 2.54276855 -166.50622559 2.47827148 C-174.99176262 1.8462733 -183.45887457 0.73597854 -189.80078125 -5.39453125 C-189.87958545 -8.62550363 -189.44331863 -10.69791894 -187.22265625 -13.10546875 C-133.57410708 -57.01779973 -49.03945712 -41.926342 0 0 Z " fill="#7CD857" transform="translate(384.80078125,76.39453125)"/>
<path d="M0 0 C10.86471475 10.39147854 16.17585912 23.95506044 16.71801758 38.78686523 C16.839236 48.59630412 15.51081374 57.13933805 12.25 66.4375 C11.74146484 67.9534375 11.74146484 67.9534375 11.22265625 69.5 C5.99343786 83.49420723 -3.43485819 94.88420196 -13.75 105.4375 C-14.55050781 106.29988281 -15.35101563 107.16226563 -16.17578125 108.05078125 C-22.69144953 114.90769566 -29.91201411 120.22246214 -37.75 125.4375 C-38.75546875 126.11554688 -39.7609375 126.79359375 -40.796875 127.4921875 C-55.88683482 137.22638438 -72.65472428 144.03066889 -89.33642578 150.50708008 C-103.26684542 156.00330166 -115.12196821 162.51863323 -121.75 176.4375 C-128.67122168 194.67726089 -122.6903322 214.83549458 -115.17700195 232.03930664 C-113.49321158 235.59023621 -111.75970939 239.11110733 -110 242.625 C-108.7557237 245.1487455 -107.51861827 247.67598691 -106.28125 250.203125 C-105.97781677 250.82074203 -105.67438354 251.43835907 -105.36175537 252.07469177 C-102.63851161 257.62935068 -100.03540555 263.23249031 -97.5 268.875 C-97.14196289 269.66608154 -96.78392578 270.45716309 -96.41503906 271.2722168 C-93.35488716 278.12445959 -91.12822293 283.85181971 -91.75 291.4375 C-92.75 293.5 -92.75 293.5 -94.75 294.4375 C-113.53109092 294.4375 -132.65614536 274.13291301 -145.421875 261.87109375 C-157.08221971 249.70942849 -165.99007384 234.80483358 -172.75 219.4375 C-173.02537598 218.81230469 -173.30075195 218.18710937 -173.58447266 217.54296875 C-189.89485209 179.5542369 -189.13085044 136.34550145 -174.41040039 98.11303711 C-166.1690269 77.57486044 -154.09166115 59.36360538 -138.75 43.4375 C-138.24243164 42.90415039 -137.73486328 42.37080078 -137.21191406 41.82128906 C-107.26539077 10.47621243 -41.81157581 -33.9808855 0 0 Z " fill="#7CD857" transform="translate(225.75,109.5625)"/>
<path d="M0 0 C0.86625 0.20625 1.7325 0.4125 2.625 0.625 C7.42700619 1.82550155 11.97500609 3.323454 16.53515625 5.25 C18.11393555 5.91672729 18.11393555 5.91672729 19.72460938 6.59692383 C24.00288806 8.42960627 28.27149549 10.2835896 32.53637695 12.1472168 C58.3438556 23.42045524 84.30903816 34.3660375 110.4375 44.875 C111.36344971 45.24906982 112.28939941 45.62313965 113.2434082 46.00854492 C139.27542372 56.37249424 163.49620961 60.0133087 189.9296875 48.82763672 C206.99747998 41.25635769 221.10983527 28.27430871 234 15 C234 18.97314323 232.17858836 21.08375851 229.9375 24.1875 C229.49849365 24.79682373 229.0594873 25.40614746 228.60717773 26.03393555 C204.07552955 59.14977258 167.17657237 81.02671363 126.6875 87.8125 C79.79574952 94.67380158 29.48183817 81.81598703 -8.64941406 53.78759766 C-24.96913219 41.62973535 -42.78089406 27.04703424 -47 6 C-32.22914492 -2.77968582 -16.67705939 -4.50731335 0 0 Z " fill="#00AD73" transform="translate(203,363)"/>
<path d="M0 0 C0.94990387 13.53613011 -3.53740522 26.17054844 -12.10546875 36.55078125 C-14.347353 39.09364136 -16.65204838 41.55505899 -19 44 C-19.61488281 44.66644531 -20.22976562 45.33289063 -20.86328125 46.01953125 C-26.95453601 52.42382694 -33.99558933 57.65331575 -41 63 C-41.78101074 63.59876953 -42.56202148 64.19753906 -43.36669922 64.81445312 C-53.68524345 72.72486761 -64.05920608 80.55970852 -74.47021484 88.34790039 C-81.48136108 93.59764263 -88.45244117 98.89880968 -95.40820312 104.22167969 C-99.38960998 107.26514463 -103.37861585 110.2929429 -107.421875 113.25390625 C-127.74057522 128.15109916 -148.2840309 146.27813904 -154 172 C-156.91961118 193.47536225 -156.13105914 215.64445656 -148.48168945 236.0480957 C-148 238 -148 238 -149 241 C-168.77443511 203.97552576 -173.26184167 160.59444605 -161.10717773 120.37280273 C-153.02618447 94.85865546 -139.57579036 72.28343952 -121 53 C-120.49243164 52.46665039 -119.98486328 51.93330078 -119.46191406 51.38378906 C-90.90402315 21.4921963 -43.25610201 -10.11416164 0 0 Z " fill="#00AD73" transform="translate(208,100)"/>
<path d="M0 0 C7.30982596 -0.19668869 14.18842398 0.21605031 21.375 1.5625 C22.31690186 1.73813477 23.25880371 1.91376953 24.22924805 2.09472656 C55.43909057 8.28210059 81.96877015 23.32354838 105 45 C105.58910156 45.53625 106.17820312 46.0725 106.78515625 46.625 C116.58092905 55.88814213 124.35797502 67.3559562 131 79 C131.4964502 79.85948242 131.4964502 79.85948242 132.00292969 80.73632812 C153.99751171 119.0847764 160.88028783 166.74845667 152 210 C151.86609863 210.68255859 151.73219727 211.36511719 151.59423828 212.06835938 C148.84857444 225.55372895 143.12464673 239.3815856 133 249 C115.78326285 238.75713106 107.77895901 226.08474118 102.68667603 206.87480164 C101.54471557 202.0939302 100.82959832 197.27409416 100.140625 192.41015625 C99.89204491 190.69354797 99.89204491 190.69354797 99.63844299 188.94226074 C97.13764025 171.33054777 95.07278542 153.65883834 92.9375 136 C92.17866025 129.72560155 91.41739697 123.45151337 90.65069771 117.17807007 C90.35169175 114.72230864 90.05668125 112.26609165 89.76194763 109.80981445 C88.79388978 101.82368134 87.72301258 93.86007909 86.49047852 85.91015625 C86.37480247 85.15276154 86.25912642 84.39536682 86.13994503 83.61502075 C82.25900994 59.20206528 72.73384571 38.61221971 53 23 C37.288933 11.62706344 18.61743012 5.67684235 0 1 C0 0.67 0 0.34 0 0 Z " fill="#00AD73" transform="translate(287,38)"/>
<path d="M0 0 C1.18207031 0.1966626 2.36414063 0.3933252 3.58203125 0.59594727 C17.50740327 3.00400204 31.52727323 5.78615176 44.0625 12.5625 C44.8978125 13.00207031 45.733125 13.44164062 46.59375 13.89453125 C61.18009578 22.06558606 70.27990821 33.60450528 75.0625 49.5625 C75.28808594 50.2534375 75.51367188 50.944375 75.74609375 51.65625 C77.90023175 59.38143454 77.22664693 67.61961245 77.0625 75.5625 C76.7325 75.5625 76.4025 75.5625 76.0625 75.5625 C75.91554688 74.72847656 75.76859375 73.89445312 75.6171875 73.03515625 C74.26045036 66.22807855 72.66310075 61.03047199 68.46484375 55.46484375 C67.0625 53.5625 67.0625 53.5625 66.12890625 51.44140625 C64.77174616 49.05021942 63.5580314 48.6398059 61.0625 47.5625 C59.62325729 46.62767759 58.18591918 45.68991947 56.75 44.75 C36.81411845 32.81757455 11.68453774 32.86388398 -10.80957031 31.33300781 C-14.09255045 31.10649652 -17.37433005 30.86631949 -20.65625 30.625 C-21.64185913 30.5623999 -22.62746826 30.4997998 -23.64294434 30.43530273 C-32.12848137 29.80330455 -40.59559332 28.69300979 -46.9375 22.5625 C-47.0163042 19.33152762 -46.58003738 17.25911231 -44.359375 14.8515625 C-38.48322883 10.04182805 -31.78954212 6.53324712 -24.87963867 3.44165039 C-23.47569525 2.80612553 -22.09225559 2.12463599 -20.72387695 1.41577148 C-13.45362606 -2.04069758 -7.78025865 -1.41272533 0 0 Z " fill="#9ED15D" transform="translate(241.9375,48.4375)"/>
<path d="M0 0 C7.44594515 9.57335806 4.04466457 25.2841547 2.73046875 36.5390625 C0.74628502 45.94006134 -7.96286417 53.80785787 -14 61 C-14.48065918 61.57298828 -14.96131836 62.14597656 -15.45654297 62.73632812 C-25.36784246 74.40510253 -36.75371804 84.09251496 -51 90 C-51.75925781 90.33773437 -52.51851563 90.67546875 -53.30078125 91.0234375 C-67.88573303 96.51483558 -85.14656685 93.1965397 -98.83349609 87.02539062 C-108.78737018 82.42525964 -108.78737018 82.42525964 -110 80 C-109.18917969 80.2165625 -108.37835938 80.433125 -107.54296875 80.65625 C-94.42352203 83.95520284 -83.45832483 84.42483415 -71.37109375 77.4921875 C-68.80886582 75.76799656 -66.40225089 73.94042883 -64 72 C-63.21238281 71.37609375 -62.42476563 70.7521875 -61.61328125 70.109375 C-50.03432202 60.33904548 -41.1164275 47.67621823 -33 35 C-8.55771064 -2.37714184 -8.55771064 -2.37714184 0 0 Z " fill="#9ED15D" transform="translate(457,283)"/>
<path d="M0 0 C0.66 0.33 1.32 0.66 2 1 C0.96875 1.78375 -0.0625 2.5675 -1.125 3.375 C-9.17148501 10.33016012 -13.03902762 19.95185631 -14.28125 30.35546875 C-15.02287771 48.80345806 -7.3280733 67.05672146 0.75 83.1875 C1.9942763 85.7112455 3.23138173 88.23848691 4.46875 90.765625 C4.77218323 91.38324203 5.07561646 92.00085907 5.38824463 92.63719177 C8.11148839 98.19185068 10.71459445 103.79499031 13.25 109.4375 C13.60803711 110.22858154 13.96607422 111.01966309 14.33496094 111.8347168 C17.39511284 118.68695959 19.62177707 124.41431971 19 132 C18 134.0625 18 134.0625 16 135 C5.53646772 135 -2.35365695 128.94323663 -10.4375 122.9375 C-11.13617188 122.41889404 -11.83484375 121.90028809 -12.5546875 121.3659668 C-13.21597656 120.86234619 -13.87726563 120.35872559 -14.55859375 119.83984375 C-15.14954834 119.38988037 -15.74050293 118.93991699 -16.34936523 118.47631836 C-29.7725645 106.47068518 -34.70852281 77.3426375 -35.875 59.6875 C-36.61939573 42.9679101 -31.97167369 28.80028597 -21 16 C-14.90469217 9.67181496 -7.90549739 3.92529905 0 0 Z " fill="#9ED15D" transform="translate(115,269)"/>
<path d="M0 0 C1.33345459 0.48267334 1.33345459 0.48267334 2.69384766 0.97509766 C28.52145501 10.52153832 49.19832977 24.38444381 61.29907227 49.9699707 C63.07760079 54.01358626 64.36795292 58.11521667 65.53515625 62.37109375 C65.75032898 63.15564941 65.96550171 63.94020508 66.18719482 64.74853516 C68.35259196 72.9224235 69.6322825 81.12863179 70.75 89.5 C70.99097841 91.23117486 71.23237079 92.96229214 71.47412109 94.69335938 C73.20809257 107.29852085 74.72935829 119.92935514 76.2421875 132.5625 C76.44028939 134.21244522 76.63840959 135.86238825 76.83654785 137.5123291 C77.72861582 144.9513402 78.61444701 152.3908941 79.47491169 159.83363342 C83.15875773 202.82338577 83.15875773 202.82338577 106.06640625 237.52734375 C108.64044518 239.4877734 111.25616391 241.28510244 114 243 C113.34 244.32 112.68 245.64 112 247 C102.47303686 244.58374123 94.50095698 239.37946468 88 232 C87.45859375 231.42378906 86.9171875 230.84757813 86.359375 230.25390625 C82.36260874 225.65762505 79.8912645 220.95345101 77.75 215.3125 C77.51611572 214.70237061 77.28223145 214.09224121 77.04125977 213.46362305 C73.2010379 202.69092762 71.58009943 191.24134299 70.1875 179.9375 C69.94483398 178.02046265 69.94483398 178.02046265 69.69726562 176.06469727 C68.14863579 163.70042579 66.78079271 151.31478544 65.39193726 138.93179321 C61.38371391 75.37609052 61.38371391 75.37609052 27.76953125 24.16796875 C5.84532279 7.89925125 -21.43244544 1.44342383 -48 -2 C-47.67 -2.66 -47.34 -3.32 -47 -4 C-30.90063801 -6.81099971 -15.29514628 -5.57173685 0 0 Z " fill="#5CBE03" transform="translate(305,43)"/>
<path d="M0 0 C2.46875 0.90234375 2.46875 0.90234375 5 3 C5.74850147 6.18509579 5.61294036 9.30698667 5.5 12.5625 C5.47015015 13.92568359 5.47015015 13.92568359 5.43969727 15.31640625 C4.89508371 31.40345278 -2.52537037 43.85904296 -14 55 C-17.00707403 57.68225097 -20.11381721 60.20539273 -23.29638672 62.67626953 C-25.21723498 64.16879451 -27.12600669 65.67613603 -29.03515625 67.18359375 C-38.27437041 74.45040297 -47.66578852 81.48873194 -57.1484375 88.43359375 C-62.97261334 92.70332039 -68.7410052 97.04640355 -74.51025391 101.38989258 C-79.42953597 105.08822244 -84.37592294 108.74530452 -89.34887695 112.37109375 C-114.59962861 130.81556756 -139.76832313 149.45212015 -146 182 C-149.59450104 206.85987083 -144.30800147 230.29497957 -135.85058594 253.64160156 C-134.85141386 256.4119811 -133.91429907 259.20054822 -133 262 C-140.95399285 258.15083561 -145.73713246 248.70351375 -148.89404297 240.74658203 C-150.40420839 236.28026537 -151.52914387 231.74854153 -152.52832031 227.14355469 C-152.96007919 225.18142067 -153.45730392 223.23398894 -153.9609375 221.2890625 C-159.43686663 197.72749586 -157.87453798 171.36117275 -145.97265625 150.16015625 C-137.30443504 136.27383752 -125.03503048 125.39062594 -112.10791016 115.59863281 C-109.76629754 113.82276075 -107.43567881 112.03299291 -105.10546875 110.2421875 C-95.80340494 103.10808436 -86.42902414 96.08409395 -76.96972656 89.16015625 C-70.65118029 84.5186078 -64.45246547 79.73495181 -58.28100586 74.90014648 C-54.18325786 71.69094656 -50.05977068 68.53231017 -45.875 65.4375 C-24.40246724 49.38521823 -4.87425187 34.00051419 -0.54296875 6.05078125 C-0.30617838 4.03964167 -0.14175884 2.02006349 0 0 Z " fill="#5CBE03" transform="translate(208,100)"/>
<path d="M0 0 C1.53732788 0.46913818 1.53732788 0.46913818 3.10571289 0.94775391 C13.5071089 4.25765924 23.41496122 8.48682193 33.3923645 12.89709473 C37.41167462 14.67322429 41.43781976 16.43361712 45.46348572 18.19528198 C47.54474871 19.10627362 49.62569027 20.01799994 51.70631409 20.93045044 C61.42790933 25.19359402 71.16524566 29.41936812 80.91757202 33.61172485 C82.64315034 34.35434731 84.36797999 35.09871254 86.09194946 35.84506226 C95.37017285 39.8616963 104.6923453 43.72829429 114.12890625 47.359375 C114.97691299 47.68822693 115.82491974 48.01707886 116.69862366 48.355896 C139.70179108 57.09089193 162.15617335 57.19724959 184.796875 47.07421875 C196.79753372 41.3636937 207.24135821 32.9216612 217 24 C217.51159668 23.53368164 218.02319336 23.06736328 218.55029297 22.58691406 C226.88793762 14.88126975 233.53828821 6.31097053 240 -3 C241.37610765 1.12832294 239.6960079 3.43301891 237.875 7.125 C237.54878662 7.79789062 237.22257324 8.47078125 236.88647461 9.1640625 C236.23134739 10.50559794 235.5708763 11.84453847 234.90478516 13.18066406 C234.15272635 14.69289888 233.42306266 16.21624629 232.69921875 17.7421875 C230.22849179 22.64967955 227.34501486 25.81403071 223.0859375 29.265625 C220.9991808 31.00068113 219.17846729 32.84418007 217.3125 34.8125 C199.09150269 53.21143674 175.28140696 65.63659791 149.1875 66.4375 C125.19989369 66.22423788 102.12723526 54.79999097 80.62037659 45.43327332 C73.66989788 42.4115959 66.6799385 39.48543568 59.6875 36.5625 C58.40109759 36.02406799 57.11472066 35.48557507 55.82836914 34.94702148 C52.56262539 33.58009681 49.29642112 32.21427611 46.03009033 30.84875488 C40.40528531 28.49709562 34.78116717 26.14380012 29.15786743 23.7885437 C27.18460809 22.96245445 25.21085264 22.13755947 23.23706055 21.31274414 C18.1526453 19.18371508 13.07831476 17.05213739 8.0625 14.765625 C4.40713203 13.12667615 0.73904134 11.89073477 -3.125 10.8125 C-4.83042969 10.32716797 -4.83042969 10.32716797 -6.5703125 9.83203125 C-20.30329177 6.50045428 -36.50484551 5.97134272 -49.0625 13.1875 C-50.5165625 14.0846875 -50.5165625 14.0846875 -52 15 C-52.66 15 -53.32 15 -54 15 C-54.4375 12.875 -54.4375 12.875 -54 10 C-40.58443098 -5.01266057 -17.89469115 -5.59700578 0 0 Z " fill="#5CBE03" transform="translate(210,354)"/>
<path d="M0 0 C1.10040377 3.30121132 0.89845619 4.2852767 0.07421875 7.5625 C-0.14556641 8.44164062 -0.36535156 9.32078125 -0.59179688 10.2265625 C-0.82962891 11.14179688 -1.06746094 12.05703125 -1.3125 13 C-1.53873047 13.91523438 -1.76496094 14.83046875 -1.99804688 15.7734375 C-7.92120003 39.05637957 -36.23941424 60.98111144 -56.19604492 72.87231445 C-66.6112406 78.8011696 -78.00846535 82.99295898 -90 84 C-91.10085938 84.09410156 -92.20171875 84.18820312 -93.3359375 84.28515625 C-100.9199643 84.60595565 -107.8144613 83.67952486 -115.1875 82 C-116.35043579 81.74367798 -116.35043579 81.74367798 -117.53686523 81.48217773 C-134.22023666 77.33675414 -150.19630392 69.28577517 -165.9375 62.5 C-167.75357719 61.71952892 -169.56974102 60.93925945 -171.38598633 60.15917969 C-180.40470542 56.28316008 -189.41580003 52.38967513 -198.421875 48.484375 C-199.25227798 48.12448486 -200.08268097 47.76459473 -200.93824768 47.39379883 C-204.84620037 45.69993055 -208.75317177 44.00388764 -212.65795898 42.30273438 C-246.93201432 26.34768162 -246.93201432 26.34768162 -283.5 28.125 C-290.50800935 30.96368733 -296.75348193 34.50983558 -302 40 C-302.13572155 37.60225255 -302.23436868 35.21224755 -302.3125 32.8125 C-302.35439453 32.13896484 -302.39628906 31.46542969 -302.43945312 30.77148438 C-302.53433582 26.88129387 -302.20798161 25.25063546 -299.6953125 22.22265625 C-298.80585938 21.48917969 -297.91640625 20.75570313 -297 20 C-296.42378906 19.41476562 -295.84757813 18.82953125 -295.25390625 18.2265625 C-284.60638466 8.14461365 -272.19054402 4.38406151 -257.796875 4.66796875 C-239.33214885 5.55893945 -222.14213181 18.08988897 -207.0859375 27.76171875 C-201.61380828 31.26847555 -196.0611843 34.63687576 -190.5 38 C-183.46875299 42.25570889 -176.48798753 46.57449872 -169.5625 51 C-131.61071548 75.64772632 -131.61071548 75.64772632 -87.640625 79.49609375 C-84.68736356 78.81246842 -81.86898843 77.97734771 -79 77 C-77.9790625 76.6596875 -76.958125 76.319375 -75.90625 75.96875 C-45.89480064 65.18793809 -19.17992235 42.91987646 -5.4375 13.9375 C-3.42185369 9.6381332 -1.79269939 5.71166268 -1 1 C-0.67 0.67 -0.34 0.34 0 0 Z " fill="#03BF61" transform="translate(457,326)"/>
<path d="M0 0 C4.51901081 1.44409161 7.68224746 2.50762891 11 6 C16.84784925 17.59758022 17.52001657 29.57521052 14.04296875 42.046875 C5.94223229 64.98379172 -14.36038439 74.6419707 -34.62646484 85.22851562 C-39.82024545 87.95583304 -44.97221304 90.75872768 -50.125 93.5625 C-52.10527573 94.63707453 -54.08574438 95.71129362 -56.06640625 96.78515625 C-57.04367676 97.31512207 -58.02094727 97.84508789 -59.02783203 98.39111328 C-62.02537311 100.01373491 -65.02594184 101.63062617 -68.02734375 103.24609375 C-74.02860977 106.47847706 -80.01865294 109.73090958 -86 113 C-87.0214209 113.55751953 -88.0428418 114.11503906 -89.09521484 114.68945312 C-100.27335339 120.81571311 -111.18038375 126.80908017 -121 135 C-122.18529297 135.90878906 -122.18529297 135.90878906 -123.39453125 136.8359375 C-136.63419892 147.52691276 -143.95896195 164.40330221 -146 181 C-146.32400913 186.46100062 -146.39127966 191.90548645 -146.375 197.375 C-146.3737915 198.12533508 -146.37258301 198.87567017 -146.37133789 199.64874268 C-146.24617505 228.34690251 -138.6475728 254.69448114 -120 277 C-118.99095305 278.32649992 -117.98772602 279.65754885 -117 281 C-120.93503815 279.37138373 -123.80332172 276.67882262 -126.875 273.8125 C-127.40440186 273.32072266 -127.93380371 272.82894531 -128.47924805 272.32226562 C-132.28200985 268.75172908 -135.91767656 265.22718644 -139 261 C-138.67 260.01 -138.34 259.02 -138 258 C-139.04811147 254.8793368 -139.04811147 254.8793368 -140.625 251.375 C-151.30821233 225.72717105 -157.58252704 194.1859662 -147.75 167.3125 C-146.86324117 165.19555552 -145.94735407 163.09052993 -145 161 C-144.57976562 160.06414062 -144.15953125 159.12828125 -143.7265625 158.1640625 C-140.10247881 150.85304974 -135.04155414 145.18313894 -129.38183594 139.41699219 C-128.12106816 138.12414834 -126.89078649 136.80175263 -125.6640625 135.4765625 C-118.85492153 128.2955913 -111.10108271 122.50247549 -103.18164062 116.62158203 C-101.11936417 115.08872167 -99.06585777 113.54501088 -97.015625 111.99609375 C-90.77024068 107.28286232 -84.48991718 102.6191772 -78.18237305 97.98950195 C-69.60053955 91.69038135 -61.0942204 85.30166271 -52.64160156 78.83007812 C-47.97207617 75.25630228 -43.28240444 71.71556068 -38.55175781 68.22314453 C-12.87284321 49.34028723 -12.87284321 49.34028723 0 21 C0.07700286 19.30742755 0.10805067 17.61226001 0.09765625 15.91796875 C0.09443359 14.98662109 0.09121094 14.05527344 0.08789062 13.09570312 C0.07951172 12.13599609 0.07113281 11.17628906 0.0625 10.1875 C0.05573242 8.71893555 0.05573242 8.71893555 0.04882812 7.22070312 C0.03708684 4.81373889 0.02066419 2.40690143 0 0 Z " fill="#03BF61" transform="translate(212,102)"/>
<path d="M0 0 C0.7209082 0.17515137 1.44181641 0.35030273 2.18457031 0.53076172 C27.25664289 6.81914001 51.80656749 18.97614776 66.3125 41.1875 C72.11815126 51.27912285 75.75239703 61.72574323 77.98828125 73.125 C78.15840225 73.9870253 78.32852325 74.8490506 78.50379944 75.73719788 C80.44824239 85.91044705 81.70701257 96.15804375 82.9375 106.4375 C83.19342236 108.52487315 83.44977893 110.61219311 83.70654297 112.69946289 C85.34886699 126.14325043 86.85250432 139.60049901 88.31274414 153.06509399 C90.9719264 197.41791752 90.9719264 197.41791752 113 234 C118.39683424 238.12373488 123.61496635 241.64031365 130 244 C129 247 129 247 125.875 249.375 C119.36527911 252.41364889 112.50452005 250.03731585 106 248 C94.32831302 243.21652173 85.46465976 235.36004102 80 224 C75.77304418 213.6995488 74.28379318 204.90449928 74.4765625 193.71484375 C74.48339559 192.28358285 74.48809128 190.85231039 74.49081421 189.42103577 C74.50407999 185.67907394 74.54802361 181.93809266 74.59838867 178.19647217 C74.63339464 175.22489872 74.64679283 172.25342761 74.65892792 169.28168583 C74.72980708 151.99069143 75.1470066 134.72535167 75.77294922 117.44604492 C76.83384691 88.0728714 77.74484099 60.12450348 57.5 36.5 C41.7210948 19.83016107 19.80041368 10.04251678 -2 4 C-2.98395752 3.72115967 -3.96791504 3.44231934 -4.98168945 3.1550293 C-13.53232645 0.93596505 -21.63196729 0.57792393 -30.4375 0.6875 C-31.77278876 0.68538797 -33.10807621 0.68213694 -34.44335938 0.67773438 C-41.44625252 0.61890719 -41.44625252 0.61890719 -48.23071289 2.08129883 C-51 3 -51 3 -54 2 C-34.83243099 -6.19091344 -19.88448476 -4.84133228 0 0 Z " fill="#03BF61" transform="translate(285,45)"/>
<path d="M0 0 C-4.00167849 2.78904865 -7.20239672 3.41082065 -12 4 C-13.60875 4.556875 -13.60875 4.556875 -15.25 5.125 C-18 6 -18 6 -21 5 C-4.5479249 -1.81916996 -4.5479249 -1.81916996 0 0 Z " fill="#18BF5A" transform="translate(252,42)"/>
<path d="M0 0 C0.66 0.33 1.32 0.66 2 1 C-2.95 5.95 -7.9 10.9 -13 16 C-13 10.79628205 -8.49504984 7.5790344 -5 4 C-3.37707762 2.6137538 -1.7331451 1.24569804 0 0 Z " fill="#5FCE5D" transform="translate(178,316)"/>
<path d="M0 0 C1.39195915 4.17587745 -0.17676781 6.13474776 -2 10 C-2.99 10 -3.98 10 -5 10 C-5 6.60406522 -4.47834052 5.93380119 -2.5 3.3125 C-2.0359375 2.68988281 -1.571875 2.06726563 -1.09375 1.42578125 C-0.7328125 0.95527344 -0.371875 0.48476563 0 0 Z " fill="#4ABC17" transform="translate(450,351)"/>
</svg>
